<mxfile host="app.diagrams.net" agent="Mozilla/5.0 (Windows NT 10.0; Win64; x64) AppleWebKit/537.36 (KHTML, like Gecko) Chrome/128.0.0.0 Safari/537.36" version="24.7.17">
  <diagram name="Page-1" id="1FMrCQv3S7Skx4EnnE7l">
    <mxGraphModel dx="2474" dy="1132" grid="0" gridSize="10" guides="1" tooltips="1" connect="1" arrows="1" fold="1" page="0" pageScale="1" pageWidth="850" pageHeight="1100" math="0" shadow="0">
      <root>
        <mxCell id="0" />
        <mxCell id="1" parent="0" />
        <mxCell id="NEaOx5RQjIk3s6qIjvgQ-43" value="" style="rounded=0;whiteSpace=wrap;html=1;" parent="1" vertex="1">
          <mxGeometry x="347" y="8" width="368" height="427" as="geometry" />
        </mxCell>
        <mxCell id="NEaOx5RQjIk3s6qIjvgQ-14" value="" style="rounded=0;whiteSpace=wrap;html=1;fillColor=#fad9d5;strokeColor=#ae4132;" parent="1" vertex="1">
          <mxGeometry x="-109.5" y="9" width="313" height="424" as="geometry" />
        </mxCell>
        <mxCell id="wB7Wqj7tAjdoLTKjcVxi-4" value="&lt;div style=&quot;&quot;&gt;&lt;br&gt;&lt;/div&gt;" style="rounded=0;whiteSpace=wrap;html=1;fillColor=#fff2cc;align=center;strokeColor=#d6b656;" parent="1" vertex="1">
          <mxGeometry x="-57.5" y="60" width="209" height="183" as="geometry" />
        </mxCell>
        <mxCell id="NEaOx5RQjIk3s6qIjvgQ-10" value="Rate Table" style="rounded=0;whiteSpace=wrap;html=1;fillColor=#fff2cc;strokeColor=#d6b656;align=center;" parent="1" vertex="1">
          <mxGeometry x="-57.5" y="265" width="206.5" height="83" as="geometry" />
        </mxCell>
        <mxCell id="NEaOx5RQjIk3s6qIjvgQ-1" value="Thermal Chamber" style="text;html=1;align=center;verticalAlign=middle;whiteSpace=wrap;rounded=0;" parent="1" vertex="1">
          <mxGeometry x="-39" y="63" width="60" height="30" as="geometry" />
        </mxCell>
        <mxCell id="NEaOx5RQjIk3s6qIjvgQ-7" value="" style="group" parent="1" vertex="1" connectable="0">
          <mxGeometry x="453" y="79" width="203" height="134" as="geometry" />
        </mxCell>
        <mxCell id="wB7Wqj7tAjdoLTKjcVxi-2" value="" style="rounded=1;whiteSpace=wrap;html=1;fillColor=#dae8fc;strokeColor=#6c8ebf;movable=1;resizable=1;rotatable=1;deletable=1;editable=1;locked=0;connectable=1;" parent="NEaOx5RQjIk3s6qIjvgQ-7" vertex="1">
          <mxGeometry width="203" height="134" as="geometry" />
        </mxCell>
        <mxCell id="NEaOx5RQjIk3s6qIjvgQ-2" value="Linux" style="rounded=1;whiteSpace=wrap;html=1;fillColor=#dae8fc;strokeColor=#6c8ebf;movable=1;resizable=1;rotatable=1;deletable=1;editable=1;locked=0;connectable=1;" parent="NEaOx5RQjIk3s6qIjvgQ-7" vertex="1">
          <mxGeometry x="24" y="98" width="162" height="21" as="geometry" />
        </mxCell>
        <mxCell id="NEaOx5RQjIk3s6qIjvgQ-3" value="&lt;div&gt;&lt;b style=&quot;background-color: initial; font-size: 20px;&quot;&gt;Computer&lt;/b&gt;&lt;br&gt;&lt;/div&gt;" style="text;html=1;align=center;verticalAlign=middle;whiteSpace=wrap;rounded=0;movable=1;resizable=1;rotatable=1;deletable=1;editable=1;locked=0;connectable=1;" parent="NEaOx5RQjIk3s6qIjvgQ-7" vertex="1">
          <mxGeometry x="26.5" y="11" width="157" height="30" as="geometry" />
        </mxCell>
        <mxCell id="NEaOx5RQjIk3s6qIjvgQ-6" value="" style="edgeStyle=orthogonalEdgeStyle;rounded=0;orthogonalLoop=1;jettySize=auto;html=1;movable=1;resizable=1;rotatable=1;deletable=1;editable=1;locked=0;connectable=1;" parent="NEaOx5RQjIk3s6qIjvgQ-7" source="NEaOx5RQjIk3s6qIjvgQ-4" target="NEaOx5RQjIk3s6qIjvgQ-5" edge="1">
          <mxGeometry relative="1" as="geometry" />
        </mxCell>
        <mxCell id="NEaOx5RQjIk3s6qIjvgQ-4" value="IMU APP" style="rounded=1;whiteSpace=wrap;html=1;fillColor=#dae8fc;strokeColor=#6c8ebf;movable=1;resizable=1;rotatable=1;deletable=1;editable=1;locked=0;connectable=1;" parent="NEaOx5RQjIk3s6qIjvgQ-7" vertex="1">
          <mxGeometry x="24" y="50" width="75" height="39" as="geometry" />
        </mxCell>
        <mxCell id="NEaOx5RQjIk3s6qIjvgQ-5" value="IMU Data" style="text;html=1;align=center;verticalAlign=middle;whiteSpace=wrap;rounded=0;movable=1;resizable=1;rotatable=1;deletable=1;editable=1;locked=0;connectable=1;" parent="NEaOx5RQjIk3s6qIjvgQ-7" vertex="1">
          <mxGeometry x="133" y="54.5" width="60" height="30" as="geometry" />
        </mxCell>
        <mxCell id="NEaOx5RQjIk3s6qIjvgQ-8" value="" style="ellipse;whiteSpace=wrap;html=1;fillColor=#fff2cc;strokeColor=#d6b656;" parent="1" vertex="1">
          <mxGeometry x="-57.5" y="253" width="206.5" height="24" as="geometry" />
        </mxCell>
        <mxCell id="NEaOx5RQjIk3s6qIjvgQ-19" value="Eth" style="edgeStyle=orthogonalEdgeStyle;rounded=0;orthogonalLoop=1;jettySize=auto;html=1;exitX=0.25;exitY=1;exitDx=0;exitDy=0;entryX=1;entryY=0.5;entryDx=0;entryDy=0;dashed=1;" parent="1" source="NEaOx5RQjIk3s6qIjvgQ-11" target="NEaOx5RQjIk3s6qIjvgQ-10" edge="1">
          <mxGeometry x="-0.3316" y="-6" relative="1" as="geometry">
            <Array as="points">
              <mxPoint x="596" y="356" />
              <mxPoint x="596" y="371" />
              <mxPoint x="180" y="371" />
              <mxPoint x="180" y="307" />
            </Array>
            <mxPoint as="offset" />
          </mxGeometry>
        </mxCell>
        <mxCell id="NEaOx5RQjIk3s6qIjvgQ-20" style="edgeStyle=orthogonalEdgeStyle;rounded=0;orthogonalLoop=1;jettySize=auto;html=1;entryX=1;entryY=0.5;entryDx=0;entryDy=0;exitX=0.25;exitY=1;exitDx=0;exitDy=0;dashed=1;" parent="1" source="NEaOx5RQjIk3s6qIjvgQ-11" target="NEaOx5RQjIk3s6qIjvgQ-15" edge="1">
          <mxGeometry relative="1" as="geometry">
            <Array as="points">
              <mxPoint x="596" y="356" />
              <mxPoint x="596" y="371" />
              <mxPoint x="180" y="371" />
              <mxPoint x="180" y="402" />
            </Array>
          </mxGeometry>
        </mxCell>
        <mxCell id="NEaOx5RQjIk3s6qIjvgQ-23" value="Eth" style="edgeStyle=orthogonalEdgeStyle;rounded=0;orthogonalLoop=1;jettySize=auto;html=1;entryX=1;entryY=0.5;entryDx=0;entryDy=0;dashed=1;exitX=1;exitY=0.5;exitDx=0;exitDy=0;" parent="1" source="NEaOx5RQjIk3s6qIjvgQ-11" target="wB7Wqj7tAjdoLTKjcVxi-2" edge="1">
          <mxGeometry relative="1" as="geometry">
            <Array as="points">
              <mxPoint x="699" y="326" />
              <mxPoint x="699" y="146" />
            </Array>
          </mxGeometry>
        </mxCell>
        <mxCell id="NEaOx5RQjIk3s6qIjvgQ-27" style="edgeStyle=orthogonalEdgeStyle;rounded=0;orthogonalLoop=1;jettySize=auto;html=1;entryX=0;entryY=0.5;entryDx=0;entryDy=0;dashed=1;dashPattern=8 8;" parent="1" source="NEaOx5RQjIk3s6qIjvgQ-11" target="NEaOx5RQjIk3s6qIjvgQ-26" edge="1">
          <mxGeometry relative="1" as="geometry">
            <Array as="points">
              <mxPoint x="699" y="326" />
              <mxPoint x="699" y="350" />
            </Array>
          </mxGeometry>
        </mxCell>
        <mxCell id="SismuHc5Ck06RcsYCc63-5" style="edgeStyle=orthogonalEdgeStyle;rounded=0;orthogonalLoop=1;jettySize=auto;html=1;exitX=0.5;exitY=1;exitDx=0;exitDy=0;entryX=0.25;entryY=0;entryDx=0;entryDy=0;dashed=1;" parent="1" source="NEaOx5RQjIk3s6qIjvgQ-11" target="NEaOx5RQjIk3s6qIjvgQ-13" edge="1">
          <mxGeometry relative="1" as="geometry">
            <Array as="points">
              <mxPoint x="596" y="371" />
              <mxPoint x="507" y="371" />
            </Array>
          </mxGeometry>
        </mxCell>
        <mxCell id="SismuHc5Ck06RcsYCc63-6" value="USB" style="edgeStyle=orthogonalEdgeStyle;rounded=0;orthogonalLoop=1;jettySize=auto;html=1;exitX=0;exitY=0.5;exitDx=0;exitDy=0;entryX=1;entryY=0.5;entryDx=0;entryDy=0;" parent="1" source="NEaOx5RQjIk3s6qIjvgQ-11" target="NEaOx5RQjIk3s6qIjvgQ-33" edge="1">
          <mxGeometry relative="1" as="geometry" />
        </mxCell>
        <mxCell id="SismuHc5Ck06RcsYCc63-7" value="Eth" style="edgeStyle=orthogonalEdgeStyle;rounded=0;orthogonalLoop=1;jettySize=auto;html=1;exitX=0;exitY=0.25;exitDx=0;exitDy=0;dashed=1;" parent="1" source="NEaOx5RQjIk3s6qIjvgQ-11" target="NEaOx5RQjIk3s6qIjvgQ-46" edge="1">
          <mxGeometry x="-0.3078" relative="1" as="geometry">
            <Array as="points">
              <mxPoint x="526" y="311" />
              <mxPoint x="526" y="288" />
              <mxPoint x="396" y="288" />
            </Array>
            <mxPoint as="offset" />
          </mxGeometry>
        </mxCell>
        <mxCell id="NEaOx5RQjIk3s6qIjvgQ-11" value="Tester Computer" style="rounded=0;whiteSpace=wrap;html=1;fillColor=#e1d5e7;strokeColor=#9673a6;" parent="1" vertex="1">
          <mxGeometry x="536" y="296" width="120" height="60" as="geometry" />
        </mxCell>
        <mxCell id="NEaOx5RQjIk3s6qIjvgQ-37" value="Power" style="edgeStyle=orthogonalEdgeStyle;rounded=0;orthogonalLoop=1;jettySize=auto;html=1;entryX=0.5;entryY=1;entryDx=0;entryDy=0;" parent="1" source="NEaOx5RQjIk3s6qIjvgQ-12" target="wB7Wqj7tAjdoLTKjcVxi-2" edge="1">
          <mxGeometry relative="1" as="geometry" />
        </mxCell>
        <mxCell id="NEaOx5RQjIk3s6qIjvgQ-39" style="edgeStyle=orthogonalEdgeStyle;rounded=0;orthogonalLoop=1;jettySize=auto;html=1;entryX=0.5;entryY=1;entryDx=0;entryDy=0;" parent="1" source="NEaOx5RQjIk3s6qIjvgQ-12" target="NEaOx5RQjIk3s6qIjvgQ-38" edge="1">
          <mxGeometry relative="1" as="geometry" />
        </mxCell>
        <mxCell id="NEaOx5RQjIk3s6qIjvgQ-12" value="PSU" style="rounded=0;whiteSpace=wrap;html=1;fillColor=#e1d5e7;strokeColor=#9673a6;" parent="1" vertex="1">
          <mxGeometry x="457" y="243" width="202" height="22" as="geometry" />
        </mxCell>
        <mxCell id="NEaOx5RQjIk3s6qIjvgQ-13" value="UPS" style="rounded=0;whiteSpace=wrap;html=1;fillColor=#e1d5e7;strokeColor=#9673a6;" parent="1" vertex="1">
          <mxGeometry x="456" y="402" width="204" height="25" as="geometry" />
        </mxCell>
        <mxCell id="NEaOx5RQjIk3s6qIjvgQ-16" value="" style="shape=image;verticalLabelPosition=bottom;labelBackgroundColor=default;verticalAlign=top;aspect=fixed;imageAspect=0;image=https://www.ideal-aerosmith.com/wp-content/uploads/2017/08/Ideal-Aerosmith-1572P-Two-Axis-Positioning-Rate-Table.png;" parent="1" vertex="1">
          <mxGeometry x="-1.55" y="190" width="102.22" height="93.87" as="geometry" />
        </mxCell>
        <mxCell id="NEaOx5RQjIk3s6qIjvgQ-17" value="EStop" style="edgeStyle=orthogonalEdgeStyle;rounded=0;orthogonalLoop=1;jettySize=auto;html=1;exitX=0.5;exitY=0;exitDx=0;exitDy=0;entryX=0;entryY=0.5;entryDx=0;entryDy=0;" parent="1" source="NEaOx5RQjIk3s6qIjvgQ-15" target="NEaOx5RQjIk3s6qIjvgQ-10" edge="1">
          <mxGeometry relative="1" as="geometry" />
        </mxCell>
        <mxCell id="NEaOx5RQjIk3s6qIjvgQ-15" value="&lt;font style=&quot;font-size: 20px;&quot;&gt;&lt;b&gt;Safety System&lt;/b&gt;&lt;/font&gt;" style="text;html=1;align=center;verticalAlign=middle;whiteSpace=wrap;rounded=0;" parent="1" vertex="1">
          <mxGeometry x="-121" y="387" width="174" height="30" as="geometry" />
        </mxCell>
        <mxCell id="wB7Wqj7tAjdoLTKjcVxi-1" value="IMU" style="rounded=1;whiteSpace=wrap;html=1;fillColor=#dae8fc;strokeColor=#6c8ebf;" parent="1" vertex="1">
          <mxGeometry x="-13" y="118" width="120" height="60" as="geometry" />
        </mxCell>
        <mxCell id="NEaOx5RQjIk3s6qIjvgQ-22" value="Eth" style="edgeStyle=orthogonalEdgeStyle;rounded=0;orthogonalLoop=1;jettySize=auto;html=1;entryX=0.75;entryY=1;entryDx=0;entryDy=0;dashed=1;" parent="1" source="NEaOx5RQjIk3s6qIjvgQ-11" target="NEaOx5RQjIk3s6qIjvgQ-12" edge="1">
          <mxGeometry relative="1" as="geometry" />
        </mxCell>
        <mxCell id="NEaOx5RQjIk3s6qIjvgQ-24" value="Network Access" style="text;html=1;align=center;verticalAlign=middle;whiteSpace=wrap;rounded=0;" parent="1" vertex="1">
          <mxGeometry x="745" y="90" width="60" height="30" as="geometry" />
        </mxCell>
        <mxCell id="NEaOx5RQjIk3s6qIjvgQ-25" style="edgeStyle=orthogonalEdgeStyle;rounded=0;orthogonalLoop=1;jettySize=auto;html=1;entryX=0;entryY=0.5;entryDx=0;entryDy=0;dashed=1;dashPattern=8 8;" parent="1" source="NEaOx5RQjIk3s6qIjvgQ-3" target="NEaOx5RQjIk3s6qIjvgQ-24" edge="1">
          <mxGeometry relative="1" as="geometry" />
        </mxCell>
        <mxCell id="NEaOx5RQjIk3s6qIjvgQ-26" value="Network Access" style="text;html=1;align=center;verticalAlign=middle;whiteSpace=wrap;rounded=0;" parent="1" vertex="1">
          <mxGeometry x="745" y="335" width="60" height="30" as="geometry" />
        </mxCell>
        <mxCell id="NEaOx5RQjIk3s6qIjvgQ-29" style="edgeStyle=orthogonalEdgeStyle;rounded=0;orthogonalLoop=1;jettySize=auto;html=1;entryX=1;entryY=0.5;entryDx=0;entryDy=0;startArrow=box;startFill=0;" parent="1" source="NEaOx5RQjIk3s6qIjvgQ-28" target="NEaOx5RQjIk3s6qIjvgQ-13" edge="1">
          <mxGeometry relative="1" as="geometry" />
        </mxCell>
        <mxCell id="NEaOx5RQjIk3s6qIjvgQ-28" value="AC Drop" style="text;html=1;align=center;verticalAlign=middle;whiteSpace=wrap;rounded=0;" parent="1" vertex="1">
          <mxGeometry x="733" y="399.5" width="60" height="30" as="geometry" />
        </mxCell>
        <mxCell id="NEaOx5RQjIk3s6qIjvgQ-38" value="Power IMU" style="text;html=1;align=center;verticalAlign=middle;whiteSpace=wrap;rounded=0;" parent="1" vertex="1">
          <mxGeometry x="396" y="199" width="60" height="30" as="geometry" />
        </mxCell>
        <mxCell id="NEaOx5RQjIk3s6qIjvgQ-41" style="edgeStyle=orthogonalEdgeStyle;rounded=0;orthogonalLoop=1;jettySize=auto;html=1;entryX=0.5;entryY=0;entryDx=0;entryDy=0;" parent="1" source="NEaOx5RQjIk3s6qIjvgQ-40" target="wB7Wqj7tAjdoLTKjcVxi-1" edge="1">
          <mxGeometry relative="1" as="geometry" />
        </mxCell>
        <mxCell id="NEaOx5RQjIk3s6qIjvgQ-40" value="PSU Power" style="text;html=1;align=center;verticalAlign=middle;whiteSpace=wrap;rounded=0;" parent="1" vertex="1">
          <mxGeometry x="287" y="83" width="60" height="30" as="geometry" />
        </mxCell>
        <mxCell id="NEaOx5RQjIk3s6qIjvgQ-42" value="AC power to all omitted" style="text;html=1;align=center;verticalAlign=middle;whiteSpace=wrap;rounded=0;" parent="1" vertex="1">
          <mxGeometry x="536" y="378" width="128" height="30" as="geometry" />
        </mxCell>
        <mxCell id="NEaOx5RQjIk3s6qIjvgQ-44" value="&lt;font style=&quot;font-size: 20px;&quot;&gt;&lt;b&gt;Tester Rack&lt;/b&gt;&lt;/font&gt;" style="text;html=1;align=center;verticalAlign=middle;whiteSpace=wrap;rounded=0;" parent="1" vertex="1">
          <mxGeometry x="444" y="22" width="174" height="30" as="geometry" />
        </mxCell>
        <mxCell id="NEaOx5RQjIk3s6qIjvgQ-48" value="Network Switch in rack is omitted to reduce clutter" style="text;html=1;align=center;verticalAlign=middle;whiteSpace=wrap;rounded=0;" parent="1" vertex="1">
          <mxGeometry x="437" y="433" width="281" height="30" as="geometry" />
        </mxCell>
        <mxCell id="NEaOx5RQjIk3s6qIjvgQ-49" value="&lt;font style=&quot;font-size: 20px;&quot;&gt;&lt;b&gt;Legend&lt;/b&gt;&lt;/font&gt;" style="text;html=1;align=center;verticalAlign=middle;whiteSpace=wrap;rounded=0;" parent="1" vertex="1">
          <mxGeometry x="-157" y="484" width="174" height="30" as="geometry" />
        </mxCell>
        <mxCell id="NEaOx5RQjIk3s6qIjvgQ-50" value="Safety" style="rounded=0;whiteSpace=wrap;html=1;fillColor=#fad9d5;strokeColor=#ae4132;" parent="1" vertex="1">
          <mxGeometry x="-97.53" y="518" width="66.05" height="34" as="geometry" />
        </mxCell>
        <mxCell id="NEaOx5RQjIk3s6qIjvgQ-51" value="" style="rounded=0;whiteSpace=wrap;html=1;fillColor=none;dashed=1;dashPattern=1 2;shadow=0;glass=0;" parent="1" vertex="1">
          <mxGeometry x="-109.5" y="479" width="272" height="236" as="geometry" />
        </mxCell>
        <mxCell id="NEaOx5RQjIk3s6qIjvgQ-52" value="Test Equipment" style="rounded=0;whiteSpace=wrap;html=1;fillColor=#e1d5e7;strokeColor=#9673a6;" parent="1" vertex="1">
          <mxGeometry x="-97.505" y="566" width="66" height="36" as="geometry" />
        </mxCell>
        <mxCell id="NEaOx5RQjIk3s6qIjvgQ-53" value="Heavy Equipment" style="rounded=0;whiteSpace=wrap;html=1;fillColor=#fff2cc;strokeColor=#d6b656;align=center;" parent="1" vertex="1">
          <mxGeometry x="-97.52" y="613" width="66.03" height="41" as="geometry" />
        </mxCell>
        <mxCell id="NEaOx5RQjIk3s6qIjvgQ-54" value="Bot Component" style="rounded=1;whiteSpace=wrap;html=1;fillColor=#dae8fc;strokeColor=#6c8ebf;" parent="1" vertex="1">
          <mxGeometry x="-97.52" y="662" width="66.03" height="40" as="geometry" />
        </mxCell>
        <mxCell id="NEaOx5RQjIk3s6qIjvgQ-55" value="RS-422&amp;nbsp;" style="shape=flexArrow;endArrow=classic;startArrow=classic;html=1;rounded=0;" parent="1" edge="1">
          <mxGeometry width="100" height="100" relative="1" as="geometry">
            <mxPoint x="-10.5" y="534.66" as="sourcePoint" />
            <mxPoint x="137.5" y="534.66" as="targetPoint" />
          </mxGeometry>
        </mxCell>
        <mxCell id="NEaOx5RQjIk3s6qIjvgQ-56" value="General" style="endArrow=classic;html=1;rounded=0;" parent="1" edge="1">
          <mxGeometry width="50" height="50" relative="1" as="geometry">
            <mxPoint x="-3.4999999999999982" y="583.66" as="sourcePoint" />
            <mxPoint x="129.5" y="583.66" as="targetPoint" />
          </mxGeometry>
        </mxCell>
        <mxCell id="NEaOx5RQjIk3s6qIjvgQ-60" value="local net" style="endArrow=classic;html=1;rounded=0;dashed=1;" parent="1" edge="1">
          <mxGeometry width="50" height="50" relative="1" as="geometry">
            <mxPoint x="-3.4999999999999964" y="633.16" as="sourcePoint" />
            <mxPoint x="129.5" y="633.16" as="targetPoint" />
          </mxGeometry>
        </mxCell>
        <mxCell id="NEaOx5RQjIk3s6qIjvgQ-61" value="internet" style="endArrow=classic;html=1;rounded=0;dashed=1;dashPattern=8 8;" parent="1" edge="1">
          <mxGeometry width="50" height="50" relative="1" as="geometry">
            <mxPoint x="-4.939999999999998" y="684.35" as="sourcePoint" />
            <mxPoint x="128.06" y="684.35" as="targetPoint" />
          </mxGeometry>
        </mxCell>
        <mxCell id="NEaOx5RQjIk3s6qIjvgQ-33" value="USB to RS-422" style="rounded=0;whiteSpace=wrap;html=1;fillColor=#e1d5e7;strokeColor=#9673a6;" parent="1" vertex="1">
          <mxGeometry x="408" y="303" width="49" height="46" as="geometry" />
        </mxCell>
        <mxCell id="SismuHc5Ck06RcsYCc63-2" value="" style="group" parent="1" vertex="1" connectable="0">
          <mxGeometry x="343" y="97" width="76" height="81" as="geometry" />
        </mxCell>
        <mxCell id="NEaOx5RQjIk3s6qIjvgQ-46" value="Switch Box" style="rounded=0;whiteSpace=wrap;html=1;fillColor=#e1d5e7;dashed=1;dashPattern=1 1;strokeColor=#9673a6;" parent="SismuHc5Ck06RcsYCc63-2" vertex="1">
          <mxGeometry x="5" y="23" width="60" height="58" as="geometry" />
        </mxCell>
        <mxCell id="SismuHc5Ck06RcsYCc63-4" value="RS-422&amp;nbsp;" style="shape=flexArrow;endArrow=classic;startArrow=classic;html=1;rounded=0;exitX=0;exitY=0.5;exitDx=0;exitDy=0;entryX=0.5;entryY=1;entryDx=0;entryDy=0;" parent="1" source="NEaOx5RQjIk3s6qIjvgQ-33" target="NEaOx5RQjIk3s6qIjvgQ-46" edge="1">
          <mxGeometry width="100" height="100" relative="1" as="geometry">
            <mxPoint x="149" y="229" as="sourcePoint" />
            <mxPoint x="374" y="195" as="targetPoint" />
            <Array as="points">
              <mxPoint x="378" y="326" />
            </Array>
          </mxGeometry>
        </mxCell>
        <mxCell id="wB7Wqj7tAjdoLTKjcVxi-3" value="RS-422&amp;nbsp;" style="shape=flexArrow;endArrow=classic;startArrow=classic;html=1;rounded=0;exitX=1;exitY=0.5;exitDx=0;exitDy=0;entryX=0;entryY=0.5;entryDx=0;entryDy=0;" parent="1" source="wB7Wqj7tAjdoLTKjcVxi-1" target="NEaOx5RQjIk3s6qIjvgQ-46" edge="1">
          <mxGeometry width="100" height="100" relative="1" as="geometry">
            <mxPoint x="185" y="135" as="sourcePoint" />
            <mxPoint x="375" y="148" as="targetPoint" />
          </mxGeometry>
        </mxCell>
        <mxCell id="VKjuzI3vGvInwff9w9JR-1" value="RS-422&amp;nbsp;" style="shape=flexArrow;endArrow=classic;startArrow=classic;html=1;rounded=0;exitX=1;exitY=0.5;exitDx=0;exitDy=0;entryX=0;entryY=0.5;entryDx=0;entryDy=0;" edge="1" parent="1" source="NEaOx5RQjIk3s6qIjvgQ-46" target="NEaOx5RQjIk3s6qIjvgQ-4">
          <mxGeometry width="100" height="100" relative="1" as="geometry">
            <mxPoint x="407" y="148.26" as="sourcePoint" />
            <mxPoint x="539" y="148.51999999999998" as="targetPoint" />
          </mxGeometry>
        </mxCell>
        <mxCell id="VKjuzI3vGvInwff9w9JR-4" value="" style="rounded=0;whiteSpace=wrap;html=1;fillColor=none;dashed=1;dashPattern=1 1;strokeColor=#9673a6;align=left;fillStyle=auto;" vertex="1" parent="1">
          <mxGeometry x="173" y="479" width="266" height="237" as="geometry" />
        </mxCell>
        <mxCell id="VKjuzI3vGvInwff9w9JR-6" value="IMU" style="rounded=1;whiteSpace=wrap;html=1;fillColor=#dae8fc;strokeColor=#6c8ebf;" vertex="1" parent="1">
          <mxGeometry x="183" y="577" width="43" height="34" as="geometry" />
        </mxCell>
        <mxCell id="VKjuzI3vGvInwff9w9JR-7" value="" style="shape=flexArrow;endArrow=classic;startArrow=none;html=1;rounded=0;exitX=1;exitY=0.5;exitDx=0;exitDy=0;startFill=0;" edge="1" parent="1">
          <mxGeometry x="0.2419" y="-1" width="100" height="100" relative="1" as="geometry">
            <mxPoint x="248" y="594.5" as="sourcePoint" />
            <mxPoint x="302" y="595" as="targetPoint" />
            <mxPoint as="offset" />
          </mxGeometry>
        </mxCell>
        <mxCell id="VKjuzI3vGvInwff9w9JR-8" value="" style="group" vertex="1" connectable="0" parent="1">
          <mxGeometry x="318" y="563.5" width="96" height="63.5" as="geometry" />
        </mxCell>
        <mxCell id="VKjuzI3vGvInwff9w9JR-9" value="" style="rounded=1;whiteSpace=wrap;html=1;fillColor=#dae8fc;strokeColor=#6c8ebf;movable=1;resizable=1;rotatable=1;deletable=1;editable=1;locked=0;connectable=1;" vertex="1" parent="VKjuzI3vGvInwff9w9JR-8">
          <mxGeometry y="-5.219178082191781" width="96" height="68.71917808219179" as="geometry" />
        </mxCell>
        <mxCell id="VKjuzI3vGvInwff9w9JR-10" value="Linux" style="rounded=1;whiteSpace=wrap;html=1;fillColor=#dae8fc;strokeColor=#6c8ebf;movable=1;resizable=1;rotatable=1;deletable=1;editable=1;locked=0;connectable=1;" vertex="1" parent="VKjuzI3vGvInwff9w9JR-8">
          <mxGeometry x="10.291725807798281" y="46.440298507462686" width="69.46914920263839" height="9.951492537313431" as="geometry" />
        </mxCell>
        <mxCell id="VKjuzI3vGvInwff9w9JR-11" value="&lt;div&gt;&lt;b style=&quot;background-color: initial;&quot;&gt;&lt;font style=&quot;font-size: 15px;&quot;&gt;Computer&lt;/font&gt;&lt;/b&gt;&lt;br&gt;&lt;/div&gt;" style="text;html=1;align=center;verticalAlign=middle;whiteSpace=wrap;rounded=0;movable=1;resizable=1;rotatable=1;deletable=1;editable=1;locked=0;connectable=1;" vertex="1" parent="VKjuzI3vGvInwff9w9JR-8">
          <mxGeometry x="15.439712782833766" y="0.002207115109383511" width="67.32503965934708" height="14.216417910447761" as="geometry" />
        </mxCell>
        <mxCell id="VKjuzI3vGvInwff9w9JR-12" value="" style="edgeStyle=orthogonalEdgeStyle;rounded=0;orthogonalLoop=1;jettySize=auto;html=1;movable=1;resizable=1;rotatable=1;deletable=1;editable=1;locked=0;connectable=1;" edge="1" parent="VKjuzI3vGvInwff9w9JR-8" source="VKjuzI3vGvInwff9w9JR-13" target="VKjuzI3vGvInwff9w9JR-14">
          <mxGeometry relative="1" as="geometry" />
        </mxCell>
        <mxCell id="VKjuzI3vGvInwff9w9JR-15" value="" style="edgeStyle=orthogonalEdgeStyle;rounded=0;orthogonalLoop=1;jettySize=auto;html=1;" edge="1" parent="VKjuzI3vGvInwff9w9JR-8" source="VKjuzI3vGvInwff9w9JR-13" target="VKjuzI3vGvInwff9w9JR-14">
          <mxGeometry relative="1" as="geometry" />
        </mxCell>
        <mxCell id="VKjuzI3vGvInwff9w9JR-13" value="IMU APP" style="rounded=1;whiteSpace=wrap;html=1;fillColor=#dae8fc;strokeColor=#6c8ebf;movable=1;resizable=1;rotatable=1;deletable=1;editable=1;locked=0;connectable=1;" vertex="1" parent="VKjuzI3vGvInwff9w9JR-8">
          <mxGeometry x="10.291525423728814" y="17.397260273972602" width="33.6406779661017" height="24.78239726027397" as="geometry" />
        </mxCell>
        <mxCell id="VKjuzI3vGvInwff9w9JR-14" value="IMU Data" style="text;html=1;align=center;verticalAlign=middle;whiteSpace=wrap;rounded=0;movable=1;resizable=1;rotatable=1;deletable=1;editable=1;locked=0;connectable=1;" vertex="1" parent="VKjuzI3vGvInwff9w9JR-8">
          <mxGeometry x="59.39263588544712" y="22.677588427724388" width="25.729314519495702" height="14.216417910447761" as="geometry" />
        </mxCell>
        <mxCell id="VKjuzI3vGvInwff9w9JR-16" value="Tx" style="text;html=1;align=center;verticalAlign=middle;whiteSpace=wrap;rounded=0;" vertex="1" parent="1">
          <mxGeometry x="209" y="580" width="54" height="25" as="geometry" />
        </mxCell>
        <mxCell id="VKjuzI3vGvInwff9w9JR-17" value="Rx" style="text;html=1;align=center;verticalAlign=middle;whiteSpace=wrap;rounded=0;" vertex="1" parent="1">
          <mxGeometry x="282" y="581.5" width="54" height="25" as="geometry" />
        </mxCell>
        <mxCell id="VKjuzI3vGvInwff9w9JR-18" value="Tester Computer" style="rounded=0;whiteSpace=wrap;html=1;fillColor=#e1d5e7;strokeColor=#9673a6;" vertex="1" parent="1">
          <mxGeometry x="321.25" y="639.5" width="89.5" height="60" as="geometry" />
        </mxCell>
        <mxCell id="VKjuzI3vGvInwff9w9JR-21" value="" style="shape=flexArrow;endArrow=classic;startArrow=none;html=1;rounded=0;startFill=0;" edge="1" parent="1">
          <mxGeometry x="0.2419" y="-1" width="100" height="100" relative="1" as="geometry">
            <mxPoint x="269" y="599" as="sourcePoint" />
            <mxPoint x="300" y="669.66" as="targetPoint" />
            <mxPoint as="offset" />
            <Array as="points">
              <mxPoint x="269" y="670" />
            </Array>
          </mxGeometry>
        </mxCell>
        <mxCell id="VKjuzI3vGvInwff9w9JR-22" value="Rx" style="text;html=1;align=center;verticalAlign=middle;whiteSpace=wrap;rounded=0;" vertex="1" parent="1">
          <mxGeometry x="282" y="657" width="54" height="25" as="geometry" />
        </mxCell>
        <mxCell id="VKjuzI3vGvInwff9w9JR-23" value="" style="rounded=0;whiteSpace=wrap;html=1;fillColor=none;dashed=1;dashPattern=1 1;strokeColor=#9673a6;align=left;fillStyle=auto;" vertex="1" parent="1">
          <mxGeometry x="452" y="479" width="266" height="238" as="geometry" />
        </mxCell>
        <mxCell id="VKjuzI3vGvInwff9w9JR-24" value="IMU" style="rounded=1;whiteSpace=wrap;html=1;fillColor=#dae8fc;strokeColor=#6c8ebf;" vertex="1" parent="1">
          <mxGeometry x="459" y="577" width="43" height="34" as="geometry" />
        </mxCell>
        <mxCell id="VKjuzI3vGvInwff9w9JR-26" value="" style="group" vertex="1" connectable="0" parent="1">
          <mxGeometry x="594" y="563.5" width="96" height="63.5" as="geometry" />
        </mxCell>
        <mxCell id="VKjuzI3vGvInwff9w9JR-27" value="" style="rounded=1;whiteSpace=wrap;html=1;fillColor=#dae8fc;strokeColor=#6c8ebf;movable=1;resizable=1;rotatable=1;deletable=1;editable=1;locked=0;connectable=1;" vertex="1" parent="VKjuzI3vGvInwff9w9JR-26">
          <mxGeometry y="-5.219178082191781" width="96" height="68.71917808219179" as="geometry" />
        </mxCell>
        <mxCell id="VKjuzI3vGvInwff9w9JR-28" value="Linux" style="rounded=1;whiteSpace=wrap;html=1;fillColor=#dae8fc;strokeColor=#6c8ebf;movable=1;resizable=1;rotatable=1;deletable=1;editable=1;locked=0;connectable=1;" vertex="1" parent="VKjuzI3vGvInwff9w9JR-26">
          <mxGeometry x="10.291725807798281" y="46.440298507462686" width="69.46914920263839" height="9.951492537313431" as="geometry" />
        </mxCell>
        <mxCell id="VKjuzI3vGvInwff9w9JR-29" value="&lt;div&gt;&lt;b style=&quot;background-color: initial;&quot;&gt;&lt;font style=&quot;font-size: 15px;&quot;&gt;Computer&lt;/font&gt;&lt;/b&gt;&lt;br&gt;&lt;/div&gt;" style="text;html=1;align=center;verticalAlign=middle;whiteSpace=wrap;rounded=0;movable=1;resizable=1;rotatable=1;deletable=1;editable=1;locked=0;connectable=1;" vertex="1" parent="VKjuzI3vGvInwff9w9JR-26">
          <mxGeometry x="15.439712782833766" y="0.002207115109383511" width="67.32503965934708" height="14.216417910447761" as="geometry" />
        </mxCell>
        <mxCell id="VKjuzI3vGvInwff9w9JR-30" value="" style="edgeStyle=orthogonalEdgeStyle;rounded=0;orthogonalLoop=1;jettySize=auto;html=1;movable=1;resizable=1;rotatable=1;deletable=1;editable=1;locked=0;connectable=1;" edge="1" parent="VKjuzI3vGvInwff9w9JR-26" source="VKjuzI3vGvInwff9w9JR-32" target="VKjuzI3vGvInwff9w9JR-33">
          <mxGeometry relative="1" as="geometry" />
        </mxCell>
        <mxCell id="VKjuzI3vGvInwff9w9JR-31" value="" style="edgeStyle=orthogonalEdgeStyle;rounded=0;orthogonalLoop=1;jettySize=auto;html=1;" edge="1" parent="VKjuzI3vGvInwff9w9JR-26" source="VKjuzI3vGvInwff9w9JR-32" target="VKjuzI3vGvInwff9w9JR-33">
          <mxGeometry relative="1" as="geometry" />
        </mxCell>
        <mxCell id="VKjuzI3vGvInwff9w9JR-32" value="IMU APP" style="rounded=1;whiteSpace=wrap;html=1;fillColor=#dae8fc;strokeColor=#6c8ebf;movable=1;resizable=1;rotatable=1;deletable=1;editable=1;locked=0;connectable=1;" vertex="1" parent="VKjuzI3vGvInwff9w9JR-26">
          <mxGeometry x="10.291525423728814" y="17.397260273972602" width="33.6406779661017" height="24.78239726027397" as="geometry" />
        </mxCell>
        <mxCell id="VKjuzI3vGvInwff9w9JR-33" value="IMU Data" style="text;html=1;align=center;verticalAlign=middle;whiteSpace=wrap;rounded=0;movable=1;resizable=1;rotatable=1;deletable=1;editable=1;locked=0;connectable=1;" vertex="1" parent="VKjuzI3vGvInwff9w9JR-26">
          <mxGeometry x="59.39263588544712" y="22.677588427724388" width="25.729314519495702" height="14.216417910447761" as="geometry" />
        </mxCell>
        <mxCell id="VKjuzI3vGvInwff9w9JR-34" value="NC" style="text;html=1;align=center;verticalAlign=middle;whiteSpace=wrap;rounded=0;" vertex="1" parent="1">
          <mxGeometry x="485" y="581.5" width="54" height="25" as="geometry" />
        </mxCell>
        <mxCell id="VKjuzI3vGvInwff9w9JR-35" value="Rx" style="text;html=1;align=center;verticalAlign=middle;whiteSpace=wrap;rounded=0;" vertex="1" parent="1">
          <mxGeometry x="558" y="581.5" width="54" height="25" as="geometry" />
        </mxCell>
        <mxCell id="VKjuzI3vGvInwff9w9JR-36" value="Tester Computer" style="rounded=0;whiteSpace=wrap;html=1;fillColor=#e1d5e7;strokeColor=#9673a6;" vertex="1" parent="1">
          <mxGeometry x="597.25" y="639.5" width="89.5" height="60" as="geometry" />
        </mxCell>
        <mxCell id="VKjuzI3vGvInwff9w9JR-38" value="Tx" style="text;html=1;align=center;verticalAlign=middle;whiteSpace=wrap;rounded=0;" vertex="1" parent="1">
          <mxGeometry x="571.5" y="657" width="27" height="25" as="geometry" />
        </mxCell>
        <mxCell id="VKjuzI3vGvInwff9w9JR-56" value="&lt;font style=&quot;font-size: 20px;&quot;&gt;&lt;b&gt;Switch Box: Normal Mode&lt;/b&gt;&lt;/font&gt;" style="text;html=1;align=center;verticalAlign=middle;whiteSpace=wrap;rounded=0;" vertex="1" parent="1">
          <mxGeometry x="219" y="495" width="174" height="30" as="geometry" />
        </mxCell>
        <mxCell id="VKjuzI3vGvInwff9w9JR-57" value="&lt;font style=&quot;font-size: 20px;&quot;&gt;&lt;b&gt;Switch Box: Tester Overwrite&lt;/b&gt;&lt;/font&gt;" style="text;html=1;align=center;verticalAlign=middle;whiteSpace=wrap;rounded=0;" vertex="1" parent="1">
          <mxGeometry x="495" y="495" width="174" height="30" as="geometry" />
        </mxCell>
        <mxCell id="VKjuzI3vGvInwff9w9JR-59" value="" style="shape=flexArrow;endArrow=classic;startArrow=none;html=1;rounded=0;startFill=0;" edge="1" parent="1" source="VKjuzI3vGvInwff9w9JR-38">
          <mxGeometry x="0.2419" y="-1" width="100" height="100" relative="1" as="geometry">
            <mxPoint x="558" y="676" as="sourcePoint" />
            <mxPoint x="578" y="595" as="targetPoint" />
            <mxPoint as="offset" />
            <Array as="points">
              <mxPoint x="549" y="670" />
              <mxPoint x="549" y="595" />
            </Array>
          </mxGeometry>
        </mxCell>
      </root>
    </mxGraphModel>
  </diagram>
</mxfile>
